<svg data-name="Layer 1" xmlns="http://www.w3.org/2000/svg" width="854.6" height="577.9">
  <path fill="#ccc" d="M151.6 268h110v123h-110z"/>
  <path fill="#e6e6e6" d="M95.6 576h-56l-6-48h68l-6 48zM208 541.2l-1.9 25.9a8.2 8.2 0 008.7 8.8l13.3-.8a4.2 4.2 0 003.8-5.2l-7.4-29.5zM319 556.5a72.1 72.1 0 0134.1 15.9 15 15 0 009.6 4.1c4.6.3 8.4-.3 11.2-1.5a4.4 4.4 0 002.6-3.7 4.5 4.5 0 00-1.9-4.1l-37-26.4-15.7 6.3-3.7 3.7a3.6 3.6 0 00.8 5.7z"/>
  <path d="M271 134.7l-106-1a90.4 90.4 0 0111.8-44.1c5.1-8.9 5-18.6 3.8-26.7A36 36 0 01193 29.4a40 40 0 0126.8-9l2.1.2a40 40 0 0132.9 19.7 33.3 33.3 0 014 20.3c-.7 6.6.9 13.3 4.6 20 6.5 14.8 7.9 33.7 7.5 54z" fill="#2f2e41"/>
  <path d="M341.8 542.2l-20.8 5.4-101.2-220.4 6.3 215h-20.7C183.2 441 143 324.2 161 287.4l107.5-6.3z" fill="#30b4f1"/>
  <circle cx="218.9" cy="69.7" r="28" fill="#ffb9b9"/>
  <path d="M243.3 121.2l-46-2.7a50.6 50.6 0 004.4-29.8h34.4c-.1 7.2 3.5 19.8 7.2 32.5z" fill="#ffb9b9"/>
  <path fill="#30b4f1" d="M272.2 289.2L171 296.4l10.4-179.3 17.6-5 20 4.6 19.8-10 12.6 4.5 20.8 178z"/>
  <path d="M188.2 418.4L119 402.6c20.5-68.2 57.6-224 45.6-279.6l36.1-16.3z" fill="#e6e6e6"/>
  <path d="M154.8 221.5l-26.2-16.3 22.3-65.4a30.9 30.9 0 0113.5-16l7.5-4.4-4.5 66zM332.3 403.5c-21.8 12.6-76.4 19.7-100.3 10.8-1.8-61.5-5.2-235.7 5.9-309.4l39.7 16.3L274 170c-19 41.7 36.2 187 58.3 233.5z" fill="#e6e6e6"/>
  <path fill="#e6e6e6" d="M329.1 213.3l-24.4-8.1-32.5-37 5.4-47 54.2 75.9-2.7 16.2z"/>
  <path d="M252.7 248.5a6.8 6.8 0 008 5.1l20.8-4.7-3-13.2-20.7 4.7a6.8 6.8 0 00-5.1 8z" fill="#ffb9b9"/>
  <path d="M243.3 62.5a59.7 59.7 0 00-46-1L190.8 39h57.8z" fill="#2f2e41"/>
  <path d="M271.3 233.2l11.8 21.7c19.7-5.5 36.8-22.9 53.3-43.4l-4.6-14.4-28 7.2z" fill="#e6e6e6"/>
  <path d="M262.7 188.5h-3.6c0-51.1-10.5-86.7-20.8-86.7l-.9-3.7c9.2 0 15 14.9 18.4 27.3 4.5 16.9 7 39.3 7 63zM179.6 175.8H176c0-46.8 10.6-75.9 26.2-75.9l-1 3.7c-10.7 0-21.6 22.3-21.6 72.2z" fill="#3f3d56"/>
  <circle cx="260.9" cy="189.4" r="9" fill="#3f3d56"/>
  <path d="M165.2 197.5h-3.7c0-13 7.3-23.5 16.3-23.5v3.6c-7 0-12.6 9-12.6 20zM194 197.5h-3.5c0-11-5.7-19.9-12.7-19.9V174c9 0 16.3 10.6 16.3 23.5z" fill="#3f3d56"/>
  <circle cx="192.3" cy="198.4" r="3.6" fill="#3f3d56"/>
  <circle cx="163.3" cy="198.4" r="3.6" fill="#3f3d56"/>
  <path fill="#30b4f1" d="M118.2 165.2l22.5 4 51.6 73.3-27.4-6.4-46.7-71z"/>
  <path d="M114.2 164.3a2 2 0 00-1.6 3l48.2 73a2 2 0 001.1.9l22.4 5.2a2 2 0 002-3l-52.8-75.1a1.9 1.9 0 00-1.3-.8l-17.7-3.2a2 2 0 00-.3 0z" fill="#3f3d56"/>
  <path d="M144.2 216.6l1.4 13.4 21-2a6.8 6.8 0 00-1.2-13.5z" fill="#ffb9b9"/>
  <path d="M125.9 215a17.4 17.4 0 0017.4 17.3h3.4l2.6-21-21-7.6zM442.6 0h412v217h-412z" fill="#e6e6e6"/>
  <path d="M454.6 205h388V12h-388z" fill="#fff"/>
  <path fill="#3f3d56" d="M484.6 40h138v138h-138z"/>
  <circle cx="589.6" cy="99" r="4" fill="#30b4f1"/>
  <circle cx="574.6" cy="85" r="4" fill="#30b4f1"/>
  <path d="M572.6 99a8 8 0 00-4.2 1.2 25.1 25.1 0 00-3.9-4.6V95a8 8 0 00-13.5-5.8 24.5 24.5 0 00-6.5 0V89a8 8 0 10-13.2 6 25.1 25.1 0 00-3.6 3.9 8 8 0 10-5.1 14.1v1a25 25 0 00.7 6 15 15 0 1019.5 18.6 25 25 0 0016.4-2.5 8 8 0 1010.5-10.5 24.9 24.9 0 002.8-10.6 8 8 0 000-16z" fill="#30b4f1"/>
  <path fill="#e6e6e6" d="M530.6 37h40v6h-40z"/>
  <path fill="#3f3d56" d="M660.6 40h138v138h-138z"/>
  <circle cx="755.8" cy="131.8" r="1.8" fill="#30b4f1"/>
  <circle cx="749" cy="125.5" r="1.8" fill="#30b4f1"/>
  <path d="M748.1 131.8a3.6 3.6 0 00-1.9.5 11.3 11.3 0 00-1.7-2v-.3a3.6 3.6 0 00-6-2.6 11 11 0 00-3 0v-.1a3.6 3.6 0 10-6 2.7 11.3 11.3 0 00-1.6 1.7 3.6 3.6 0 10-2.3 6.4v.5a11.3 11.3 0 00.3 2.6 6.7 6.7 0 108.8 8.4 11.2 11.2 0 007.4-1 3.6 3.6 0 104.7-4.8 11.2 11.2 0 001.3-4.8 3.6 3.6 0 000-7.2z" fill="#30b4f1"/>
  <circle cx="769.9" cy="97.6" r="1.8" fill="#30b4f1"/>
  <circle cx="774.1" cy="89.4" r="1.8" fill="#30b4f1"/>
  <path d="M767.8 90.3a3.6 3.6 0 00-1-1.7 11.3 11.3 0 001.5-2.2h.3a3.6 3.6 0 00.8-6.6 11 11 0 00-.8-2.9h.1a3.6 3.6 0 10-4.2-5 11.3 11.3 0 00-2.1-1 3.6 3.6 0 10-6.8-.6l-.4.2a11.3 11.3 0 00-2.5 1 6.7 6.7 0 10-5.7 10.7 11.2 11.2 0 003 6.8 3.6 3.6 0 106 3.3 11.2 11.2 0 004.9 0 3.6 3.6 0 106.9-2z" fill="#30b4f1"/>
  <circle cx="700.2" cy="73.2" r="1.8" fill="#30b4f1"/>
  <circle cx="691" cy="73.9" r="1.8" fill="#30b4f1"/>
  <path d="M695 78.8a3.6 3.6 0 00-.9 1.8 11.3 11.3 0 00-2.6-.1l-.3-.2a3.6 3.6 0 00-6 2.7 11 11 0 00-2 2.2V85a3.6 3.6 0 10-2 6.2 11.3 11.3 0 00.1 2.4 3.6 3.6 0 103.2 6l.3.3a11.3 11.3 0 002.2 1.6 6.7 6.7 0 1012.1-.9 11.2 11.2 0 004.2-6.2 3.6 3.6 0 10-.3-6.6 11.2 11.2 0 00-2.7-4.2 3.6 3.6 0 10-5.3-4.9z" fill="#30b4f1"/>
  <path fill="#e6e6e6" d="M706.6 37h40v6h-40zM25.2 510.2c14.4 19.4 44.3 21.4 44.3 21.4s6.6-29.3-7.8-48.6-44.4-21.3-44.4-21.3-6.5 29.2 7.9 48.5z"/>
  <path d="M98.6 517.5c-9.5 12.7-29.2 14-29.2 14s-4.4-19.2 5.2-32 29.2-14 29.2-14 4.3 19.3-5.2 32z" fill="#e6e6e6"/>
  <path fill="#3f3d56" d="M0 575.7h519.6v2.2H0z"/>
</svg>
